<?xml version="1.0" encoding="UTF-8" standalone="no"?>
<!-- Created with Inkscape (http://www.inkscape.org/) -->

<svg
   width="1280"
   height="720"
   viewBox="0 0 338.66666 190.5"
   version="1.1"
   id="svg1"
   inkscape:version="1.3.2 (091e20ef0f, 2023-11-25)"
   sodipodi:docname="logotipo.svg"
   xml:space="preserve"
   xmlns:inkscape="http://www.inkscape.org/namespaces/inkscape"
   xmlns:sodipodi="http://sodipodi.sourceforge.net/DTD/sodipodi-0.dtd"
   xmlns="http://www.w3.org/2000/svg"
   xmlns:svg="http://www.w3.org/2000/svg"><sodipodi:namedview
     id="namedview1"
     pagecolor="#ffffff"
     bordercolor="#eeeeee"
     borderopacity="1"
     inkscape:showpageshadow="0"
     inkscape:pageopacity="0"
     inkscape:pagecheckerboard="0"
     inkscape:deskcolor="#505050"
     inkscape:document-units="px"
     inkscape:zoom="0.76524272"
     inkscape:cx="650.77391"
     inkscape:cy="269.19564"
     inkscape:window-width="2544"
     inkscape:window-height="996"
     inkscape:window-x="8"
     inkscape:window-y="40"
     inkscape:window-maximized="0"
     inkscape:current-layer="g1"
     showguides="true"><inkscape:page
       x="0"
       y="0"
       width="338.66666"
       height="190.5"
       id="page6"
       margin="0"
       bleed="0"
       inkscape:label="Negativa" /><inkscape:page
       x="357.67145"
       y="0"
       width="339.01941"
       height="190.85278"
       id="page7"
       margin="0"
       bleed="0"
       inkscape:label="Positiva" /></sodipodi:namedview><defs
     id="defs1" /><g
     inkscape:label="Camada 1"
     inkscape:groupmode="layer"
     id="layer1"
     transform="translate(137.67147)" /><g
     id="g1"
     inkscape:groupmode="layer"
     inkscape:label="2"
     transform="matrix(0.26458332,0,0,0.26458334,357.67148,0)"><path
       id="path1"
       style="fill:#000000;stroke-width:0.536397"
       d="m 640.66653,102.52553 a 258.14093,258.14093 0 0 0 -214.65419,115.22899 461.89457,461.89457 0 0 1 228.83626,-60.84126 461.89457,461.89457 0 0 1 184.48083,38.96737 258.14093,258.14093 0 0 0 -198.6629,-93.3551 z m 16.58958,128.70074 a 461.89457,461.89457 0 0 0 -271.30593,89.03668 258.14093,258.14093 0 0 0 -3.42479,40.4037 A 258.14093,258.14093 0 0 0 640.66653,618.8078 258.14093,258.14093 0 0 0 898.80767,360.66665 258.14093,258.14093 0 0 0 890.07764,294.3556 461.89457,461.89457 0 0 0 657.25611,231.22627 Z M 501.04927,377.16715 h 10.71222 v 76.77498 h 67.84797 v 8.92808 h -78.56019 z m 92.84386,0 h 64.38863 c 5.31918,0 9.80126,0.24246 13.44657,0.72602 3.68252,0.44637 6.71402,1.13394 9.09466,2.06387 2.38064,0.92993 4.203,2.08305 5.46771,3.45935 1.30189,1.37629 2.25024,2.99495 2.84543,4.85481 0.59513,1.85985 0.93027,3.94301 1.00467,6.24923 0.11157,2.30622 0.16763,4.85388 0.16763,7.64366 0,2.90138 -0.0743,5.57943 -0.22315,8.03443 -0.11162,2.45502 -0.53945,4.6869 -1.28338,6.69554 -0.70676,1.97145 -1.85985,3.71946 -3.45933,5.24454 -1.56231,1.48789 -3.81255,2.73474 -6.75104,3.73907 -2.90143,1.00432 -6.60321,1.76626 -11.10407,2.28702 -4.46368,0.52076 -9.96846,0.78154 -16.51518,0.78154 h -46.36585 v 33.92398 h -10.7133 z m 107.12752,0 h 96.4153 v 8.92808 h -42.851 v 76.77498 h -10.7133 v -76.77498 h -42.851 z m -96.41422,8.92808 v 33.92292 h 46.36585 c 4.76122,0 8.75947,-0.0744 11.99561,-0.22314 3.27336,-0.18599 5.97074,-0.50176 8.09101,-0.94813 2.12022,-0.44636 3.7572,-1.07895 4.91034,-1.89729 1.1531,-0.81834 1.98939,-1.8971 2.51018,-3.23619 0.55796,-1.3391 0.87476,-2.93839 0.94915,-4.79824 0.11158,-1.89706 0.16656,-4.14727 0.16656,-6.75107 0,-2.41781 -0.055,-4.50097 -0.16656,-6.24923 -0.0744,-1.74827 -0.39119,-3.21716 -0.94915,-4.40747 -0.52079,-1.19031 -1.35708,-2.13972 -2.51018,-2.84647 -1.15314,-0.70674 -2.79012,-1.2456 -4.91034,-1.61757 -2.12027,-0.40917 -4.81765,-0.66996 -8.09101,-0.78154 -3.23614,-0.1116 -7.23439,-0.16658 -11.99561,-0.16658 z" /><path
       id="path1-9"
       style="fill:#ffffff;stroke-width:0.536397"
       d="m -711.82924,101.85885 a 258.14093,258.14093 0 0 0 -214.65423,115.22899 461.89457,461.89457 0 0 1 228.8363,-60.84126 461.89457,461.89457 0 0 1 184.48083,38.96737 258.14093,258.14093 0 0 0 -198.6629,-93.3551 z m 16.58958,128.70074 a 461.89457,461.89457 0 0 0 -271.30596,89.03668 258.14093,258.14093 0 0 0 -3.4248,40.4037 258.14093,258.14093 0 0 0 258.14118,258.14115 258.14093,258.14093 0 0 0 258.14114,-258.14115 258.14093,258.14093 0 0 0 -8.73003,-66.31105 461.89457,461.89457 0 0 0 -232.82153,-63.12933 z M -851.4465,376.50047 h 10.71222 v 76.77498 h 67.84797 v 8.92808 h -78.56019 z m 92.84386,0 h 64.38863 c 5.31918,0 9.80126,0.24246 13.44657,0.72602 3.68252,0.44637 6.71402,1.13394 9.09466,2.06387 2.38064,0.92993 4.203,2.08305 5.46771,3.45935 1.30189,1.37629 2.25024,2.99495 2.84543,4.85481 0.59513,1.85985 0.93027,3.94301 1.00467,6.24923 0.11157,2.30622 0.16763,4.85388 0.16763,7.64366 0,2.90138 -0.0743,5.57943 -0.22315,8.03443 -0.11162,2.45502 -0.53945,4.6869 -1.28338,6.69554 -0.70676,1.97145 -1.85985,3.71946 -3.45933,5.24454 -1.56231,1.48789 -3.81255,2.73474 -6.75104,3.73907 -2.90143,1.00432 -6.60321,1.76626 -11.10407,2.28702 -4.46368,0.52076 -9.96846,0.78154 -16.51518,0.78154 h -46.36585 v 33.92398 h -10.7133 z m 107.12752,0 h 96.4153 v 8.92808 h -42.851 v 76.77498 h -10.7133 v -76.77498 h -42.851 z m -96.41422,8.92808 v 33.92292 h 46.36585 c 4.76122,0 8.75947,-0.0744 11.99561,-0.22314 3.27336,-0.18599 5.97074,-0.50176 8.09101,-0.94813 2.12022,-0.44636 3.7572,-1.07895 4.91034,-1.89729 1.1531,-0.81834 1.98939,-1.8971 2.51018,-3.23619 0.55796,-1.3391 0.87476,-2.93839 0.94915,-4.79824 0.11158,-1.89706 0.16656,-4.14727 0.16656,-6.75107 0,-2.41781 -0.055,-4.50097 -0.16656,-6.24923 -0.0744,-1.74827 -0.39119,-3.21716 -0.94915,-4.40747 -0.52079,-1.19031 -1.35708,-2.13972 -2.51018,-2.84647 -1.15314,-0.70674 -2.79012,-1.2456 -4.91034,-1.61757 -2.12027,-0.40917 -4.81765,-0.66996 -8.09101,-0.78154 -3.23614,-0.1116 -7.23439,-0.16658 -11.99561,-0.16658 z" /></g></svg>
