<?xml version="1.0" encoding="UTF-8" standalone="no"?>
<!-- Created with Inkscape (http://www.inkscape.org/) -->

<svg
   width="1280"
   height="1280"
   viewBox="0 0 338.66666 338.66668"
   version="1.1"
   id="svg5"
   inkscape:version="1.1 (1:1.1+202105261517+ce6663b3b7)"
   sodipodi:docname="logo-example.svg"
   xmlns:inkscape="http://www.inkscape.org/namespaces/inkscape"
   xmlns:sodipodi="http://sodipodi.sourceforge.net/DTD/sodipodi-0.dtd"
   xmlns:xlink="http://www.w3.org/1999/xlink"
   xmlns="http://www.w3.org/2000/svg"
   xmlns:svg="http://www.w3.org/2000/svg">
  <sodipodi:namedview
     id="namedview7"
     pagecolor="#ffffff"
     bordercolor="#666666"
     borderopacity="1.0"
     inkscape:pageshadow="2"
     inkscape:pageopacity="0.0"
     inkscape:pagecheckerboard="0"
     inkscape:document-units="mm"
     showgrid="false"
     units="px"
     width="1280px"
     inkscape:zoom="0.18863812"
     inkscape:cx="710.35485"
     inkscape:cy="649.39156"
     inkscape:window-width="2560"
     inkscape:window-height="1027"
     inkscape:window-x="0"
     inkscape:window-y="25"
     inkscape:window-maximized="1"
     inkscape:current-layer="layer1" />
  <defs
     id="defs2">
    <color-profile
       name="Artifex-CMYK-SWOP-Profile"
       xlink:href="file:///usr/share/color/icc/ghostscript/default_cmyk.icc"
       id="color-profile8399" />
  </defs>
  <g
     inkscape:label="Camada 1"
     inkscape:groupmode="layer"
     id="layer1">
    <g
       id="color">
      <g
         id="g838">
        <path
           id="path846-3-4"
           style="fill:#008000;stroke-width:0.393798;stroke-linecap:round;stroke-linejoin:round;paint-order:stroke fill markers"
           d="m 283.97924,188.71635 a 92.867266,92.867266 0 0 1 -92.86727,92.86727 92.867266,92.867266 0 0 1 -92.867268,-92.86727 92.867266,92.867266 0 0 1 92.867268,-92.86726 92.867266,92.867266 0 0 1 92.86727,92.86726 z"
           inkscape:label="3" />
        <path
           id="path846-7"
           style="fill:#ffcc00;stroke-width:0.393798;stroke-linecap:round;stroke-linejoin:round;paint-order:stroke fill markers"
           d="M 241.7307,156.01807 A 92.867266,92.867266 0 0 1 148.86343,248.88533 92.867266,92.867266 0 0 1 55.996172,156.01807 92.867266,92.867266 0 0 1 148.86343,63.1508 92.867266,92.867266 0 0 1 241.7307,156.01807 Z"
           inkscape:label="2" />
        <path
           id="path846-3-6-8"
           style="fill:#ff6600;stroke-width:0.319894;stroke-linecap:round;stroke-linejoin:round;paint-order:stroke fill markers"
           d="m 283.82475,147.29321 a 75.438882,75.438882 0 0 1 -75.43888,75.43888 75.438882,75.438882 0 0 1 -75.43889,-75.43888 75.438882,75.438882 0 0 1 75.43889,-75.43889 75.438882,75.438882 0 0 1 75.43888,75.43889 z"
           inkscape:label="1" />
        <path
           id="path1060-5"
           style="font-weight:bold;font-size:53.876px;line-height:0.65;font-family:Boston;-inkscape-font-specification:'Boston Bold';fill:#ffffff;stroke-width:1.20001"
           d="m 171.84119,113.01894 c -0.57601,0 -0.86403,0.3355 -0.86403,0.86351 v 13.82448 c -1.58402,-1.72803 -3.88808,-2.92798 -6.81612,-2.92798 -6.09607,0 -10.60814,4.94408 -10.60814,11.47216 0,6.52808 4.7043,11.47217 10.80037,11.47217 3.31204,0 5.80796,-1.39243 7.53598,-3.31246 l 0.14418,2.01642 c 0.048,0.576 0.38357,0.86403 0.91157,0.86403 h 3.36051 c 0.57602,0 0.91158,-0.33603 0.91158,-0.86403 v -32.54479 c 0,-0.52801 -0.33556,-0.86351 -0.91158,-0.86351 z m 22.03225,11.76001 c -6.62409,0 -11.95225,4.94408 -11.95225,11.47216 0,6.52808 5.32816,11.47217 11.95225,11.47217 6.62407,0 11.95224,-4.94409 11.95224,-11.47217 0,-6.52808 -5.32817,-11.47216 -11.95224,-11.47216 z m -28.32024,5.71179 c 3.45605,0 5.66425,2.49633 5.66425,5.76037 0,3.36005 -2.2082,5.75986 -5.66425,5.75986 -3.21603,0 -5.66425,-2.44782 -5.66425,-5.75986 0,-3.26404 2.44822,-5.76037 5.66425,-5.76037 z m 28.32024,0 c 3.21602,0 5.61619,2.59233 5.61619,5.76037 0,3.21604 -2.40017,5.75986 -5.61619,5.75986 -3.16805,0 -5.6162,-2.54382 -5.6162,-5.75986 0,-3.16804 2.44815,-5.76037 5.6162,-5.76037 z m -29.52017,25.48837 c -6.09607,0 -10.80037,4.94409 -10.80037,11.47217 0,6.52808 4.51207,11.47216 10.60814,11.47216 2.92804,0 5.2321,-1.1999 6.81612,-2.87992 v 10.94403 c 0,0.52801 0.28802,0.86403 0.86403,0.86403 h 4.46432 c 0.57602,0 0.91158,-0.33602 0.91158,-0.86403 v -29.7124 c 0,-0.52801 -0.33556,-0.86403 -0.91158,-0.86403 h -3.50417 c -0.528,0 -0.86409,0.28802 -0.91209,0.86403 l -0.14418,1.87224 c -1.72802,-1.82402 -4.17576,-3.16828 -7.3918,-3.16828 z m 56.97637,0 c -6.76807,0 -11.52023,5.04009 -11.52023,11.47217 0,6.48008 5.1364,11.47216 12.14448,11.47216 4.32006,0 7.00811,-1.34396 8.49612,-2.49597 0.43202,-0.33602 0.47972,-0.76798 0.19172,-1.24798 l -1.68,-2.97605 c -0.28801,-0.52801 -0.71993,-0.57578 -1.19992,-0.23978 -1.05602,0.768 -2.6401,1.68 -5.13613,1.68 -3.36005,0 -5.80775,-1.87229 -6.52776,-4.46432 h 15.31224 c 0.52801,0 0.81552,-0.33603 0.86352,-0.86404 0.048,-0.28799 0.048,-0.52796 0.048,-0.81597 0,-6.62407 -4.32,-11.52022 -10.99209,-11.52022 z m -37.58427,0.43201 c -0.528,0 -0.86403,0.33602 -0.86403,0.86403 v 11.32799 c 0,6.19207 4.22405,10.3203 10.17613,10.3203 3.07204,0 5.47204,-1.39192 6.76806,-3.31194 l 0.14417,2.0159 c 0.048,0.528 0.38409,0.86403 0.91209,0.86403 h 3.26389 c 0.576,0 0.91208,-0.33603 0.91208,-0.86403 v -20.35225 c 0,-0.52801 -0.33608,-0.86403 -0.91208,-0.86403 h -4.51239 c -0.52801,0 -0.86403,0.33602 -0.86403,0.86403 v 10.27224 c 0,2.92803 -1.82384,5.32784 -4.94388,5.32784 -2.73603,0 -4.65605,-2.20803 -4.65605,-5.52007 v -10.08001 c 0,-0.52801 -0.33608,-0.86403 -0.91209,-0.86403 z m 37.82457,4.55993 c 2.49602,0 4.36815,1.68028 4.75216,4.03231 l 0.0475,0.14418 h -10.27172 c 0.672,-2.68804 2.688,-4.17649 5.47202,-4.17649 z m -56.01674,0.72037 c 3.45605,0 5.66425,2.39981 5.66425,5.75986 0,3.26404 -2.2082,5.76037 -5.66425,5.76037 -3.21603,0 -5.66425,-2.49633 -5.66425,-5.76037 0,-3.31205 2.44822,-5.75986 5.66425,-5.75986 z"
           inkscape:label="0" />
      </g>
      <path
         id="rect38-1"
         style="fill:none;stroke-width:0.264583"
         inkscape:label="4"
         d="M 0.38303077,0.38303417 H 338.28364 V 338.28364 H 0.38303077 Z" />
    </g>
    <g
       id="positive"
       transform="translate(-352.70866,17.312354)">
      <path
         id="rect38-1-0"
         style="fill:none;stroke-width:0.264583"
         inkscape:label="4"
         d="M 15.191083,-16.92932 H 353.09169 V 320.97129 H 15.191083 Z" />
      <path
         id="path846-3-4-7"
         style="fill:#000000;stroke-width:0.393798;stroke-linecap:round;stroke-linejoin:round;paint-order:stroke fill markers"
         inkscape:label="3"
         d="m 163.01709,42.804399 a 92.867265,92.867265 0 0 0 -92.867186,92.867201 92.867265,92.867265 0 0 0 92.867186,92.86771 92.867265,92.867265 0 0 0 58.19128,-20.50986 c -44.11084,-0.71344 -79.76774,-36.80499 -79.76774,-81.0829 -1e-5,-36.171318 23.79656,-66.878917 56.55727,-77.301224 a 92.867265,92.867265 0 0 0 -34.98081,-6.840927 z m 59.52246,8.70386 a 75.43888,75.43888 0 0 0 -75.4388,75.438801 75.43888,75.43888 0 0 0 75.4388,75.43881 75.43888,75.43888 0 0 0 75.43881,-75.43881 75.43888,75.43888 0 0 0 -75.43881,-75.438801 z M 185.9945,92.672672 h 4.46433 c 0.57602,0 0.91157,0.3355 0.91157,0.86351 v 32.544788 c 0,0.528 -0.33555,0.86403 -0.91157,0.86403 h -3.36052 c -0.528,0 -0.86357,-0.28803 -0.91157,-0.86403 l -0.14418,-2.01642 c -1.72802,1.92003 -4.22394,3.31246 -7.53597,3.31246 -6.09608,0 -10.80038,-4.94409 -10.80038,-11.47217 0,-6.52808 4.51207,-11.47216 10.60814,-11.47216 2.92804,0 5.2321,1.19995 6.81612,2.92798 V 93.536181 c 0,-0.528009 0.28802,-0.86351 0.86403,-0.863509 z m 22.03225,11.760008 c 6.62407,0 11.95224,4.94408 11.95224,11.47216 0,6.52808 -5.32817,11.47217 -11.95224,11.47217 -6.62409,0 -11.95225,-4.94409 -11.95225,-11.47217 0,-6.52808 5.32816,-11.47216 11.95225,-11.47216 z m -28.32024,5.71179 c -3.21603,0 -5.66425,2.49633 -5.66425,5.76037 0,3.31204 2.44822,5.75986 5.66425,5.75986 3.45605,0 5.66425,-2.39981 5.66425,-5.75986 0,-3.26404 -2.2082,-5.76037 -5.66425,-5.76037 z m 28.32024,0 c -3.16805,0 -5.6162,2.59233 -5.6162,5.76037 0,3.21604 2.44815,5.75986 5.6162,5.75986 3.21602,0 5.61619,-2.54382 5.61619,-5.75986 0,-3.16804 -2.40017,-5.76037 -5.61619,-5.76037 z m -29.52016,25.48837 c 3.21604,0 5.66377,1.34426 7.39179,3.16828 l 0.14418,-1.87224 c 0.048,-0.57601 0.38409,-0.86403 0.91209,-0.86403 h 3.50418 c 0.57602,0 0.91157,0.33602 0.91157,0.86403 v 29.7124 c 0,0.52801 -0.33555,0.86403 -0.91157,0.86403 h -4.46433 c -0.57601,0 -0.86403,-0.33602 -0.86403,-0.86403 v -10.94403 c -1.58402,1.68002 -3.88808,2.87992 -6.81612,2.87992 -6.09607,0 -10.60814,-4.94408 -10.60814,-11.47216 0,-6.52808 4.7043,-11.47217 10.80038,-11.47217 z m 56.97636,0 c 6.67209,0 10.9921,4.89615 10.9921,11.52022 0,0.28801 -7e-5,0.52799 -0.0481,0.81597 -0.048,0.52801 -0.33551,0.86404 -0.86352,0.86404 h -15.31224 c 0.72001,2.59203 3.16772,4.46432 6.52776,4.46432 2.49604,0 4.08011,-0.912 5.13613,-1.68 0.47999,-0.336 0.91191,-0.28823 1.19992,0.23978 l 1.68,2.97605 c 0.288,0.48 0.2403,0.91196 -0.19172,1.24798 -1.48801,1.15201 -4.17606,2.49597 -8.49612,2.49597 -7.00808,0 -12.14448,-4.99208 -12.14448,-11.47216 0,-6.43208 4.75216,-11.47217 11.52023,-11.47217 z m -37.58427,0.43201 h 4.51187 c 0.57601,0 0.91209,0.33602 0.91209,0.86403 v 10.08001 c 0,3.31204 1.92002,5.52007 4.65605,5.52007 3.12004,0 4.94388,-2.39981 4.94388,-5.32784 v -10.27224 c 0,-0.52801 0.33602,-0.86403 0.86403,-0.86403 h 4.51239 c 0.576,0 0.91209,0.33602 0.91209,0.86403 v 20.35225 c 0,0.528 -0.33609,0.86403 -0.91209,0.86403 h -3.26389 c -0.528,0 -0.86409,-0.33603 -0.91208,-0.86403 l -0.14418,-2.0159 c -1.29602,1.92002 -3.69602,3.31194 -6.76806,3.31194 -5.95208,0 -10.17613,-4.12823 -10.17613,-10.3203 v -11.32799 c 0,-0.52801 0.33603,-0.86403 0.86403,-0.86403 z m 37.82457,4.55993 c -2.78402,0 -4.80002,1.48845 -5.47202,4.17649 h 10.27172 l -0.0475,-0.14418 c -0.38401,-2.35203 -2.25614,-4.03231 -4.75216,-4.03231 z m -56.01674,0.72037 c -3.21603,0 -5.66425,2.4478 -5.66425,5.75986 0,3.26404 2.44822,5.76037 5.66425,5.76037 3.45605,0 5.66425,-2.49633 5.66425,-5.76037 0,-3.36005 -2.2082,-5.75986 -5.66425,-5.75986 z m 117.77317,16.59279 c -11.28882,27.20078 -36.97799,46.94117 -67.50027,49.73391 -17.5698,16.35065 -41.11105,26.36687 -66.96232,26.36687 -9.28284,-1e-5 -18.26808,-1.29247 -26.78648,-3.70417 a 92.867265,92.867265 0 0 0 69.03506,30.90302 92.867265,92.867265 0 0 0 92.8672,-92.86771 92.867265,92.867265 0 0 0 -0.65319,-10.43192 z" />
    </g>
    <g
       id="negative">
      <path
         id="rect38-1-0-2"
         style="fill:none;stroke-width:0.264583"
         inkscape:label="4"
         d="M 338.28364,0.38303 H 676.18425 V 338.28364 H 338.28364 Z" />
      <path
         id="path846-3-4-7-6"
         style="fill:#ffffff;stroke-width:0.393798;stroke-linecap:round;stroke-linejoin:round;paint-order:stroke fill markers"
         inkscape:label="3"
         d="m 486.10965,60.116749 a 92.867265,92.867265 0 0 0 -92.86719,92.867201 92.867265,92.867265 0 0 0 92.86719,92.86771 92.867265,92.867265 0 0 0 58.19128,-20.50986 c -44.11084,-0.71344 -79.76774,-36.80499 -79.76774,-81.0829 -10e-6,-36.17132 23.79656,-66.878917 56.55727,-77.301224 a 92.867265,92.867265 0 0 0 -34.98081,-6.840927 z m 59.52246,8.70386 a 75.43888,75.43888 0 0 0 -75.4388,75.438801 75.43888,75.43888 0 0 0 75.4388,75.43881 75.43888,75.43888 0 0 0 75.43881,-75.43881 75.43888,75.43888 0 0 0 -75.43881,-75.438801 z m -36.54505,41.164411 h 4.46433 c 0.57602,0 0.91157,0.3355 0.91157,0.86351 v 32.54479 c 0,0.528 -0.33555,0.86403 -0.91157,0.86403 h -3.36052 c -0.528,0 -0.86357,-0.28803 -0.91157,-0.86403 l -0.14418,-2.01642 c -1.72802,1.92003 -4.22394,3.31246 -7.53597,3.31246 -6.09608,0 -10.80038,-4.94409 -10.80038,-11.47217 0,-6.52808 4.51207,-11.47216 10.60814,-11.47216 2.92804,0 5.2321,1.19995 6.81612,2.92798 v -13.82448 c 0,-0.52801 0.28802,-0.86351 0.86403,-0.86351 z m 22.03225,11.76001 c 6.62407,0 11.95224,4.94408 11.95224,11.47216 0,6.52808 -5.32817,11.47217 -11.95224,11.47217 -6.62409,0 -11.95225,-4.94409 -11.95225,-11.47217 0,-6.52808 5.32816,-11.47216 11.95225,-11.47216 z m -28.32024,5.71179 c -3.21603,0 -5.66425,2.49633 -5.66425,5.76037 0,3.31204 2.44822,5.75986 5.66425,5.75986 3.45605,0 5.66425,-2.39981 5.66425,-5.75986 0,-3.26404 -2.2082,-5.76037 -5.66425,-5.76037 z m 28.32024,0 c -3.16805,0 -5.6162,2.59233 -5.6162,5.76037 0,3.21604 2.44815,5.75986 5.6162,5.75986 3.21602,0 5.61619,-2.54382 5.61619,-5.75986 0,-3.16804 -2.40017,-5.76037 -5.61619,-5.76037 z m -29.52016,25.48837 c 3.21604,0 5.66377,1.34426 7.39179,3.16828 l 0.14418,-1.87224 c 0.048,-0.57601 0.38409,-0.86403 0.91209,-0.86403 h 3.50418 c 0.57602,0 0.91157,0.33602 0.91157,0.86403 v 29.7124 c 0,0.52801 -0.33555,0.86403 -0.91157,0.86403 h -4.46433 c -0.57601,0 -0.86403,-0.33602 -0.86403,-0.86403 V 173.0096 c -1.58402,1.68002 -3.88808,2.87992 -6.81612,2.87992 -6.09607,0 -10.60814,-4.94408 -10.60814,-11.47216 0,-6.52808 4.7043,-11.47217 10.80038,-11.47217 z m 56.97636,0 c 6.67209,0 10.9921,4.89615 10.9921,11.52022 0,0.28801 -7e-5,0.52799 -0.0481,0.81597 -0.048,0.52801 -0.33551,0.86404 -0.86352,0.86404 h -15.31224 c 0.72001,2.59203 3.16772,4.46432 6.52776,4.46432 2.49604,0 4.08011,-0.912 5.13613,-1.68 0.47999,-0.336 0.91191,-0.28823 1.19992,0.23978 l 1.68,2.97605 c 0.288,0.48 0.2403,0.91196 -0.19172,1.24798 -1.48801,1.15201 -4.17606,2.49597 -8.49612,2.49597 -7.00808,0 -12.14448,-4.99208 -12.14448,-11.47216 0,-6.43208 4.75216,-11.47217 11.52023,-11.47217 z m -37.58427,0.43201 h 4.51187 c 0.57601,0 0.91209,0.33602 0.91209,0.86403 v 10.08001 c 0,3.31204 1.92002,5.52007 4.65605,5.52007 3.12004,0 4.94388,-2.39981 4.94388,-5.32784 v -10.27224 c 0,-0.52801 0.33602,-0.86403 0.86403,-0.86403 h 4.51239 c 0.576,0 0.91209,0.33602 0.91209,0.86403 v 20.35225 c 0,0.528 -0.33609,0.86403 -0.91209,0.86403 h -3.26389 c -0.528,0 -0.86409,-0.33603 -0.91208,-0.86403 l -0.14418,-2.0159 c -1.29602,1.92002 -3.69602,3.31194 -6.76806,3.31194 -5.95208,0 -10.17613,-4.12823 -10.17613,-10.3203 v -11.32799 c 0,-0.52801 0.33603,-0.86403 0.86403,-0.86403 z m 37.82457,4.55993 c -2.78402,0 -4.80002,1.48845 -5.47202,4.17649 h 10.27172 l -0.0475,-0.14418 c -0.38401,-2.35203 -2.25614,-4.03231 -4.75216,-4.03231 z m -56.01674,0.72037 c -3.21603,0 -5.66425,2.4478 -5.66425,5.75986 0,3.26404 2.44822,5.76037 5.66425,5.76037 3.45605,0 5.66425,-2.49633 5.66425,-5.76037 0,-3.36005 -2.2082,-5.75986 -5.66425,-5.75986 z m 117.77317,16.59279 c -11.28882,27.20078 -36.97799,46.94117 -67.50027,49.73391 -17.5698,16.35065 -41.11105,26.36687 -66.96232,26.36687 -9.28284,-1e-5 -18.26808,-1.29247 -26.78648,-3.70417 a 92.867265,92.867265 0 0 0 69.03506,30.90302 92.867265,92.867265 0 0 0 92.8672,-92.86771 92.867265,92.867265 0 0 0 -0.65319,-10.43192 z" />
    </g>
    <path
       id="rect38-1-6"
       style="fill:none;stroke-width:0.264583"
       inkscape:label="4"
       d="M -337.51758,0.38303417 H 0.38303 V 338.28364 h -337.90061 z" />
    <g
       id="text">
      <g
         aria-label="Color"
         id="text2299"
         style="font-size:46.4643px;line-height:1.25;stroke-width:0.264583">
        <path
           d="m 140.48998,-71.158149 v 4.832469 q -2.31414,-2.155327 -4.94591,-3.221646 -2.60908,-1.066319 -5.55847,-1.066319 -5.80804,0 -8.89356,3.56196 -3.08552,3.539273 -3.08552,10.254816 0,6.692855 3.08552,10.254816 3.08552,3.539272 8.89356,3.539272 2.94939,0 5.55847,-1.066319 2.63177,-1.066319 4.94591,-3.221646 v 4.787094 q -2.40489,1.63351 -5.10472,2.450265 -2.67715,0.816756 -5.67192,0.816756 -7.69111,0 -12.1152,-4.696343 -4.42409,-4.71903 -4.42409,-12.863895 0,-8.167553 4.42409,-12.863895 4.42409,-4.719031 12.1152,-4.719031 3.04015,0 5.71729,0.816756 2.69983,0.794067 5.05935,2.40489 z"
           id="path8309" />
        <path
           d="m 157.23346,-62.37803 q -3.35777,0 -5.30891,2.631767 -1.95114,2.609079 -1.95114,7.169296 0,4.560217 1.92845,7.191984 1.95114,2.609079 5.3316,2.609079 3.33508,0 5.28622,-2.631767 1.95114,-2.631767 1.95114,-7.169296 0,-4.514842 -1.95114,-7.146608 -1.95114,-2.654455 -5.28622,-2.654455 z m 0,-3.539273 q 5.44503,0 8.55324,3.539273 3.10821,3.539273 3.10821,9.801063 0,6.239102 -3.10821,9.801063 -3.10821,3.539273 -8.55324,3.539273 -5.46772,0 -8.57593,-3.539273 -3.08552,-3.561961 -3.08552,-9.801063 0,-6.26179 3.08552,-9.801063 3.10821,-3.539273 8.57593,-3.539273 z"
           id="path8311" />
        <path
           d="m 175.81464,-75.19655 h 4.17453 v 35.301977 h -4.17453 z"
           id="path8313" />
        <path
           d="m 198.57035,-62.37803 q -3.35778,0 -5.30891,2.631767 -1.95114,2.609079 -1.95114,7.169296 0,4.560217 1.92845,7.191984 1.95114,2.609079 5.3316,2.609079 3.33508,0 5.28622,-2.631767 1.95113,-2.631767 1.95113,-7.169296 0,-4.514842 -1.95113,-7.146608 -1.95114,-2.654455 -5.28622,-2.654455 z m 0,-3.539273 q 5.44503,0 8.55324,3.539273 3.10821,3.539273 3.10821,9.801063 0,6.239102 -3.10821,9.801063 -3.10821,3.539273 -8.55324,3.539273 -5.46773,0 -8.57593,-3.539273 -3.08552,-3.561961 -3.08552,-9.801063 0,-6.26179 3.08552,-9.801063 3.1082,-3.539273 8.57593,-3.539273 z"
           id="path8315" />
        <path
           d="m 231.87581,-61.402461 q -0.70332,-0.408378 -1.54276,-0.589879 -0.81676,-0.204189 -1.81501,-0.204189 -3.53927,0 -5.44504,2.31414 -1.88307,2.291452 -1.88307,6.602105 v 13.385711 h -4.19722 v -25.410163 h 4.19722 v 3.94765 q 1.31588,-2.31414 3.42583,-3.425834 2.10995,-1.134383 5.12741,-1.134383 0.43107,0 0.95288,0.06806 0.52182,0.04537 1.15707,0.158814 z"
           id="path8317" />
      </g>
      <g
         aria-label="negative"
         id="text2299-1"
         style="font-size:46.4643px;line-height:1.25;stroke-width:0.264583">
        <path
           d="m 427.80069,-56.923923 v 15.336849 h -4.17453 v -15.200723 q 0,-3.607336 -1.40663,-5.39966 -1.40664,-1.792324 -4.21991,-1.792324 -3.38045,0 -5.33159,2.155327 -1.95114,2.155326 -1.95114,5.8761 v 14.36128 h -4.19721 v -25.410163 h 4.19721 v 3.94765 q 1.49739,-2.291452 3.51659,-3.425835 2.04188,-1.134382 4.69634,-1.134382 4.37871,0 6.62479,2.722518 2.24608,2.699829 2.24608,7.963363 z"
           id="path8320" />
        <path
           d="m 457.86182,-55.335788 v 2.041889 h -19.19375 q 0.27225,4.310652 2.58639,6.579417 2.33683,2.246077 6.48867,2.246077 2.40489,0 4.65097,-0.589879 2.26876,-0.589879 4.49215,-1.769636 v 3.94765 q -2.24608,0.952881 -4.60559,1.452009 -2.35952,0.499128 -4.7871,0.499128 -6.08028,0 -9.64224,-3.539272 -3.53928,-3.539273 -3.53928,-9.574187 0,-6.239102 3.35777,-9.891813 3.38046,-3.675399 9.09775,-3.675399 5.12741,0 8.09949,3.312396 2.99477,3.289709 2.99477,8.96162 z m -4.17453,-1.225132 q -0.0454,-3.425835 -1.92845,-5.467723 -1.86038,-2.041888 -4.9459,-2.041888 -3.4939,0 -5.60385,1.973825 -2.08727,1.973825 -2.40489,5.558473 z"
           id="path8322" />
        <path
           d="m 481.43428,-54.587095 q 0,-4.537529 -1.88307,-7.03317 -1.86039,-2.495641 -5.24085,-2.495641 -3.35777,0 -5.24085,2.495641 -1.86038,2.495641 -1.86038,7.03317 0,4.514841 1.86038,7.010482 1.88308,2.495641 5.24085,2.495641 3.38046,0 5.24085,-2.495641 1.88307,-2.495641 1.88307,-7.010482 z m 4.17453,9.846438 q 0,6.488667 -2.88133,9.642249 -2.88133,3.176271 -8.8255,3.176271 -2.2007,0 -4.15184,-0.340315 -1.95113,-0.317627 -3.78883,-0.998256 v -4.061089 q 1.8377,0.998257 3.63002,1.474697 1.79232,0.476441 3.65271,0.476441 4.10646,0 6.14835,-2.155327 2.04189,-2.132638 2.04189,-6.465979 v -2.064575 q -1.2932,2.246076 -3.3124,3.357771 -2.0192,1.111695 -4.83246,1.111695 -4.67366,0 -7.5323,-3.561961 -2.85865,-3.56196 -2.85865,-9.43806 0,-5.898788 2.85865,-9.460748 2.85864,-3.561961 7.5323,-3.561961 2.81326,0 4.83246,1.111695 2.0192,1.111694 3.3124,3.357771 v -3.856899 h 4.17453 z"
           id="path8324" />
        <path
           d="m 505.75544,-54.360219 q -5.05935,0 -7.01048,1.15707 -1.95114,1.15707 -1.95114,3.94765 0,2.22339 1.45201,3.539273 1.4747,1.293196 3.99302,1.293196 3.47121,0 5.55848,-2.450266 2.10995,-2.472953 2.10995,-6.556729 v -0.930194 z m 8.32637,-1.724261 v 14.497406 h -4.17453 v -3.8569 q -1.42932,2.31414 -3.56196,3.425834 -2.13264,1.089007 -5.21816,1.089007 -3.90228,0 -6.21641,-2.178014 -2.29146,-2.200701 -2.29146,-5.8761 0,-4.287965 2.85865,-6.465979 2.88133,-2.178014 8.57593,-2.178014 h 5.85341 v -0.408377 q 0,-2.881331 -1.90576,-4.446779 -1.88308,-1.588135 -5.30891,-1.588135 -2.17802,0 -4.24259,0.521816 -2.06458,0.521816 -3.97034,1.565447 v -3.856899 q 2.29145,-0.884819 4.44678,-1.315884 2.15532,-0.453753 4.19721,-0.453753 5.5131,0 8.23562,2.858644 2.72252,2.858643 2.72252,8.66668 z"
           id="path8326" />
        <path
           d="m 526.80957,-74.211909 v 7.214672 h 8.59862 v 3.244333 h -8.59862 v 13.794088 q 0,3.108208 0.83944,3.993026 0.86213,0.884818 3.47121,0.884818 h 4.28797 v 3.493898 h -4.28797 q -4.83246,0 -6.67016,-1.792324 -1.8377,-1.815012 -1.8377,-6.579418 v -13.794088 h -3.06284 v -3.244333 h 3.06284 v -7.214672 z"
           id="path8328" />
        <path
           d="m 540.8986,-66.997237 h 4.17452 v 25.410163 h -4.17452 z m 0,-9.891814 h 4.17452 v 5.286222 h -4.17452 z"
           id="path8330" />
        <path
           d="m 550.8131,-66.997237 h 4.42409 l 7.94068,21.326387 7.94067,-21.326387 h 4.42409 l -9.52881,25.410163 h -5.67191 z"
           id="path8332" />
        <path
           d="m 603.04007,-55.335788 v 2.041889 h -19.19375 q 0.27225,4.310652 2.58639,6.579417 2.33683,2.246077 6.48867,2.246077 2.40489,0 4.65097,-0.589879 2.26876,-0.589879 4.49215,-1.769636 v 3.94765 q -2.24608,0.952881 -4.60559,1.452009 -2.35952,0.499128 -4.78709,0.499128 -6.08029,0 -9.64225,-3.539272 -3.53928,-3.539273 -3.53928,-9.574187 0,-6.239102 3.35778,-9.891813 3.38045,-3.675399 9.09774,-3.675399 5.12741,0 8.09949,3.312396 2.99477,3.289709 2.99477,8.96162 z m -4.17453,-1.225132 q -0.0454,-3.425835 -1.92845,-5.467723 -1.86038,-2.041888 -4.9459,-2.041888 -3.4939,0 -5.60385,1.973825 -2.08727,1.973825 -2.40489,5.558473 z"
           id="path8334" />
      </g>
      <g
         aria-label="positive"
         id="text2299-1-7"
         style="font-size:46.4643px;line-height:1.25;stroke-width:0.264583">
        <path
           d="m -265.17987,-44.291707 v 13.476461 h -4.19721 v -35.0751 h 4.19721 v 3.8569 q 1.31589,-2.268765 3.3124,-3.357772 2.0192,-1.111694 4.80978,-1.111694 4.62828,0 7.50961,3.675398 2.90402,3.675399 2.90402,9.664937 0,5.989539 -2.90402,9.664937 -2.88133,3.675399 -7.50961,3.675399 -2.79058,0 -4.80978,-1.089007 -1.99651,-1.111695 -3.3124,-3.380459 z m 14.20247,-8.87087 q 0,-4.605592 -1.90576,-7.214671 -1.88308,-2.631767 -5.19548,-2.631767 -3.31239,0 -5.21815,2.631767 -1.88308,2.609079 -1.88308,7.214671 0,4.605593 1.88308,7.237359 1.90576,2.60908 5.21815,2.60908 3.3124,0 5.19548,-2.60908 1.90576,-2.631766 1.90576,-7.237359 z"
           id="path8337" />
        <path
           d="m -229.87789,-62.963639 q -3.35777,0 -5.30891,2.631766 -1.95114,2.60908 -1.95114,7.169296 0,4.560217 1.92845,7.191984 1.95114,2.609079 5.3316,2.609079 3.33508,0 5.28622,-2.631767 1.95114,-2.631766 1.95114,-7.169296 0,-4.514841 -1.95114,-7.146608 -1.95114,-2.654454 -5.28622,-2.654454 z m 0,-3.539273 q 5.44503,0 8.55324,3.539273 3.10821,3.539272 3.10821,9.801062 0,6.239103 -3.10821,9.801063 -3.10821,3.539273 -8.55324,3.539273 -5.46773,0 -8.57593,-3.539273 -3.08552,-3.56196 -3.08552,-9.801063 0,-6.26179 3.08552,-9.801062 3.1082,-3.539273 8.57593,-3.539273 z"
           id="path8339" />
        <path
           d="m -195.09773,-65.141653 v 3.94765 q -1.76964,-0.907506 -3.6754,-1.361259 -1.90576,-0.453753 -3.94765,-0.453753 -3.10821,0 -4.67366,0.952881 -1.54276,0.952881 -1.54276,2.858644 0,1.452009 1.1117,2.291452 1.11169,0.816755 4.46947,1.565447 l 1.42932,0.317628 q 4.44678,0.952881 6.30716,2.699829 1.88308,1.724261 1.88308,4.832469 0,3.539273 -2.81327,5.603848 -2.79058,2.064576 -7.69111,2.064576 -2.04189,0 -4.26528,-0.408378 -2.2007,-0.38569 -4.65097,-1.179757 v -4.310653 q 2.31414,1.202445 4.56022,1.815012 2.24608,0.589879 4.44678,0.589879 2.94939,0 4.53753,-0.998257 1.58813,-1.020944 1.58813,-2.858643 0,-1.701574 -1.15707,-2.609079 -1.13438,-0.907506 -5.01397,-1.746949 l -1.45201,-0.340315 q -3.87958,-0.816755 -5.60385,-2.495641 -1.72426,-1.701573 -1.72426,-4.650967 0,-3.584648 2.54102,-5.535786 2.54102,-1.951137 7.21467,-1.951137 2.31414,0 4.35603,0.340315 2.04189,0.340314 3.76615,1.020944 z"
           id="path8341" />
        <path
           d="m -187.089,-65.890346 h 4.17453 v 25.410163 h -4.17453 z m 0,-9.891813 h 4.17453 v 5.286221 h -4.17453 z"
           id="path8343" />
        <path
           d="m -170.05057,-73.105017 v 7.214671 h 8.59861 v 3.244334 h -8.59861 v 13.794088 q 0,3.108208 0.83944,3.993026 0.86213,0.884818 3.47121,0.884818 h 4.28796 v 3.493897 h -4.28796 q -4.83247,0 -6.67017,-1.792324 -1.8377,-1.815011 -1.8377,-6.579417 v -13.794088 h -3.06283 v -3.244334 h 3.06283 v -7.214671 z"
           id="path8345" />
        <path
           d="m -155.96154,-65.890346 h 4.17453 v 25.410163 h -4.17453 z m 0,-9.891813 h 4.17453 v 5.286221 h -4.17453 z"
           id="path8347" />
        <path
           d="m -146.04704,-65.890346 h 4.42409 l 7.94068,21.326387 7.94067,-21.326387 h 4.4241 l -9.52882,25.410163 h -5.67191 z"
           id="path8349" />
        <path
           d="m -93.820083,-54.228896 v 2.041888 h -19.193747 q 0.27225,4.310653 2.58639,6.579417 2.33683,2.246077 6.48867,2.246077 2.40489,0 4.650964,-0.589878 2.268765,-0.589879 4.492154,-1.769637 v 3.947651 q -2.246077,0.952881 -4.605592,1.452009 -2.359516,0.499128 -4.787096,0.499128 -6.08029,0 -9.64225,-3.539273 -3.53927,-3.539272 -3.53927,-9.574186 0,-6.239103 3.35777,-9.891814 3.38046,-3.675398 9.09775,-3.675398 5.127406,0 8.099488,3.312396 2.994769,3.289709 2.994769,8.96162 z m -4.174527,-1.225133 q -0.04538,-3.425834 -1.92845,-5.467722 -1.86039,-2.041888 -4.94591,-2.041888 -3.49389,0 -5.60385,1.973825 -2.08726,1.973825 -2.40489,5.558473 z"
           id="path8351" />
      </g>
    </g>
  </g>
</svg>
